<svg width="25" height="26" viewBox="0 0 25 26" fill="none" xmlns="http://www.w3.org/2000/svg">
<g clip-path="url(#clip0_180_389)">
<path d="M4.46074 15.9238L4.46072 4.78248C4.46072 4.78248 10.0952 1.59924 12.51 1.59924C14.9248 1.59924 20.5594 4.78248 20.5594 4.78248L20.5594 15.9238L12.51 17.5155L4.46074 15.9238Z" fill="url(#paint0_linear_180_389)"/>
<path d="M3.5 25C3.5 25.2761 3.72386 25.5 4 25.5C4.27614 25.5 4.5 25.2761 4.5 25H3.5ZM20.5 25C20.5 25.2761 20.7239 25.5 21 25.5C21.2761 25.5 21.5 25.2761 21.5 25H20.5ZM20.6471 4.25559L20.3545 4.66105L20.6471 4.25559ZM20.6216 23.3349L20.3492 23.7542L20.6216 23.3349ZM4.5 25V23.6112H3.5V25H4.5ZM4.29187 24.0171C5.09112 23.4425 6.51285 22.9389 8.13645 22.5804C9.74384 22.2255 11.4783 22.0279 12.8542 22.0279V21.0279C11.3967 21.0279 9.58949 21.2355 7.92084 21.6039C6.2684 21.9688 4.67972 22.5067 3.70813 23.2052L4.29187 24.0171ZM12.8542 22.0279C14.1258 22.0279 15.6027 22.1967 16.9699 22.5021C18.3461 22.8094 19.5654 23.245 20.3492 23.7542L20.894 22.9156C19.9646 22.3119 18.6115 21.844 17.1879 21.5261C15.7553 21.2062 14.2051 21.0279 12.8542 21.0279V22.0279ZM20.5 24.0809V25H21.5V24.0809H20.5ZM21.5 25V14.9514H20.5V25H21.5ZM21 14.9514C20.5546 14.7242 20.5549 14.7236 20.5552 14.7231C20.5553 14.7229 20.5556 14.7223 20.5557 14.722C20.5561 14.7212 20.5565 14.7206 20.5568 14.7199C20.5575 14.7186 20.5581 14.7174 20.5587 14.7163C20.5598 14.7142 20.5607 14.7126 20.5614 14.7114C20.5627 14.7092 20.5629 14.7088 20.562 14.7103C20.5602 14.7132 20.5536 14.7235 20.5411 14.7402C20.516 14.7734 20.4667 14.8328 20.383 14.9105C20.2161 15.0655 19.9084 15.2971 19.3772 15.5375C18.3115 16.0197 16.3514 16.5346 12.8542 16.5346V17.5346C16.4403 17.5346 18.5531 17.008 19.7895 16.4485C20.4093 16.1681 20.8099 15.8788 21.0636 15.6433C21.1902 15.5256 21.2792 15.4223 21.34 15.3416C21.3703 15.3013 21.3935 15.2669 21.4107 15.2393C21.4192 15.2255 21.4263 15.2134 21.4321 15.2033C21.435 15.1982 21.4375 15.1936 21.4397 15.1894C21.4408 15.1874 21.4418 15.1854 21.4428 15.1836C21.4433 15.1827 21.4437 15.1818 21.4442 15.181C21.4444 15.1806 21.4447 15.18 21.4448 15.1798C21.4451 15.1791 21.4454 15.1786 21 14.9514ZM12.8542 16.5346C9.35752 16.5346 7.20833 16.0207 5.95133 15.5276C5.32313 15.2811 4.91684 15.0394 4.67522 14.8686C4.55429 14.7831 4.47412 14.715 4.42764 14.6724C4.40439 14.6511 4.3895 14.6361 4.38211 14.6284C4.37842 14.6245 4.37659 14.6225 4.37652 14.6224C4.37649 14.6224 4.37689 14.6228 4.37772 14.6238C4.37814 14.6243 4.37866 14.6249 4.37928 14.6256C4.3796 14.626 4.37994 14.6263 4.3803 14.6268C4.38048 14.627 4.38078 14.6273 4.38087 14.6274C4.38117 14.6278 4.38147 14.6282 4 14.9514C3.61853 15.2746 3.61884 15.275 3.61917 15.2754C3.61929 15.2755 3.61962 15.2759 3.61986 15.2762C3.62033 15.2767 3.62084 15.2773 3.62137 15.2779C3.62243 15.2792 3.6236 15.2805 3.62489 15.282C3.62747 15.285 3.63052 15.2884 3.63404 15.2923C3.64108 15.3001 3.65003 15.3098 3.66099 15.3212C3.68292 15.344 3.71288 15.3738 3.75174 15.4094C3.82949 15.4807 3.94261 15.5754 4.09793 15.6852C4.4088 15.9049 4.88687 16.1841 5.58609 16.4585C6.98392 17.0069 9.26182 17.5346 12.8542 17.5346V16.5346ZM4.68121 4.68139C6.25761 3.71555 9.59092 2.5 12.8542 2.5V1.5C9.38995 1.5 5.87765 2.77558 4.15878 3.82871L4.68121 4.68139ZM12.8542 2.5C16.1132 2.5 19.0403 3.71277 20.3545 4.66105L20.9397 3.85012C19.4556 2.77925 16.3238 1.5 12.8542 1.5V2.5ZM4.5 23.6112V14.9514H3.5V23.6112H4.5ZM4.5 10.4299V5.04108H3.5V10.4299H4.5ZM4 10.4299C4 10.9299 4 10.9299 4.00003 10.9299C4.00007 10.9299 4.00012 10.9299 4.00021 10.9299C4.00038 10.9299 4.00066 10.9299 4.00104 10.9299C4.0018 10.9299 4.00296 10.9299 4.00453 10.9299C4.00767 10.9299 4.01243 10.9299 4.01875 10.9299C4.0314 10.9299 4.05033 10.9299 4.07518 10.93C4.1249 10.9302 4.19832 10.9305 4.29263 10.9312C4.48127 10.9326 4.75339 10.9353 5.0865 10.9406C5.75297 10.9514 6.66225 10.973 7.63461 11.0162C8.60793 11.0594 9.63938 11.1239 10.5517 11.2201C11.4761 11.3175 12.2376 11.4437 12.694 11.5979L13.0143 10.6506C12.4436 10.4577 11.5849 10.3234 10.6565 10.2256C9.71609 10.1264 8.66239 10.0608 7.67893 10.0172C6.69452 9.97349 5.77541 9.95168 5.1027 9.94078C4.7662 9.93533 4.49103 9.9326 4.29977 9.93123C4.20413 9.93055 4.12945 9.93021 4.07855 9.93004C4.0531 9.92995 4.0336 9.92991 4.02039 9.92989C4.01378 9.92988 4.00875 9.92987 4.00534 9.92987C4.00363 9.92987 4.00233 9.92987 4.00144 9.92987C4.00099 9.92986 4.00065 9.92986 4.00041 9.92986C4.00029 9.92986 4.00019 9.92986 4.00013 9.92986C4.00005 9.92986 4 9.92986 4 10.4299ZM20.5 4.98641V10.4299H21.5V4.98641H20.5ZM13.0109 11.5991C13.4849 11.4426 14.2138 11.3167 15.0704 11.2196C15.9181 11.1236 16.859 11.0592 17.7402 11.0161C18.6204 10.973 19.4361 10.9514 20.032 10.9406C20.3298 10.9352 20.5724 10.9325 20.7402 10.9312C20.8242 10.9305 20.8894 10.9302 20.9335 10.93C20.9556 10.9299 20.9723 10.9299 20.9835 10.9299C20.9891 10.9299 20.9933 10.9299 20.9961 10.9299C20.9974 10.9299 20.9985 10.9299 20.9991 10.9299C20.9995 10.9299 20.9997 10.9299 20.9998 10.9299C20.9999 10.9299 21 10.9299 21 10.9299C21 10.9299 21 10.9299 21 10.4299C21 9.92986 20.9999 9.92986 20.9999 9.92986C20.9998 9.92986 20.9997 9.92986 20.9996 9.92986C20.9994 9.92986 20.9991 9.92986 20.9987 9.92987C20.9979 9.92987 20.9967 9.92987 20.9952 9.92987C20.9921 9.92987 20.9876 9.92988 20.9817 9.92989C20.9699 9.92991 20.9524 9.92995 20.9297 9.93004C20.8843 9.93021 20.8176 9.93055 20.7322 9.93124C20.5614 9.93261 20.3155 9.93534 20.0139 9.9408C19.411 9.95171 18.5846 9.97354 17.6913 10.0173C16.7988 10.0609 15.8347 10.1267 14.9579 10.226C14.09 10.3243 13.2749 10.4588 12.6974 10.6495L13.0109 11.5991ZM12.3542 11.1243V17.0346H13.3542V11.1243H12.3542ZM3.5 10.4299V14.9514H4.5V10.4299H3.5ZM20.5 10.4299V14.9514H21.5V10.4299H20.5ZM20.3545 4.66105C20.4372 4.72074 20.5 4.83418 20.5 4.98641H21.5C21.5 4.5648 21.3223 4.12622 20.9397 3.85012L20.3545 4.66105ZM4.15878 3.82871C3.72092 4.09698 3.5 4.57156 3.5 5.04108H4.5C4.5 4.8744 4.57659 4.74549 4.68121 4.68139L4.15878 3.82871ZM20.3492 23.7542C20.4319 23.8079 20.5 23.9207 20.5 24.0809H21.5C21.5 23.646 21.3103 23.1861 20.894 22.9156L20.3492 23.7542Z" fill="#32B6FF"/>
</g>
<defs>
<linearGradient id="paint0_linear_180_389" x1="8.90391" y1="5.85156" x2="10.6496" y2="17.7885" gradientUnits="userSpaceOnUse">
<stop stop-color="#C9E9F0"/>
<stop offset="1" stop-color="#ECF6F9"/>
</linearGradient>
<clipPath id="clip0_180_389">
<rect width="25" height="25" fill="white" transform="translate(0 0.5)"/>
</clipPath>
</defs>
</svg>
