<svg width="12" height="20" viewBox="0 0 12 20" fill="none" xmlns="http://www.w3.org/2000/svg">
<path d="M7 19.5H4C3.72386 19.5 3.5 19.2761 3.5 19V12C3.5 11.7239 3.27614 11.5 3 11.5H1C0.723858 11.5 0.5 11.2761 0.5 11V8.5C0.5 8.22386 0.723858 8 1 8H3C3.27614 8 3.5 7.77668 3.5 7.50054V5C3.5 3 5 0.5 7 0.5H10.5C10.7761 0.5 11 0.723858 11 1V3.5C11 3.77614 10.7763 4 10.5002 4H8.5C7.7 4 7.5 4.66667 7.5 5V7.5C7.5 7.77614 7.72386 8 8 8H10.4235C10.7278 8 10.9615 8.26949 10.9185 8.57071L10.5613 11.0707C10.5261 11.317 10.3152 11.5 10.0664 11.5H8C7.72386 11.5 7.5 11.7239 7.5 12V19C7.5 19.2761 7.27614 19.5 7 19.5Z" stroke="#FFC5D6"/>
</svg>
