<svg width="25" height="25" viewBox="0 0 25 25" fill="none" xmlns="http://www.w3.org/2000/svg">
<g clip-path="url(#clip0_180_394)">
<path d="M7.99025 23.3378L1.70838 18.8043C0.8127 18.1578 0.610624 16.9077 1.25703 16.0121L3.24375 13.2592L5.49885 10.1345L7.75394 7.00973L10.2346 3.57252C10.2346 3.57252 14.3463 1.36614 17.4524 3.60779C20.5585 5.84945 19.76 10.4469 19.76 10.4469L10.7824 22.8865C10.136 23.7822 8.88593 23.9842 7.99025 23.3378Z" fill="url(#paint0_linear_180_394)"/>
<path d="M19.76 10.4469L10.7824 22.8865C10.136 23.7822 8.88593 23.9842 7.99025 23.3378L1.70838 18.8042C0.8127 18.1578 0.610624 16.9077 1.25703 16.0121L3.24375 13.2592M19.76 10.4469L14.9973 7.00972L10.2346 3.57252M19.76 10.4469C19.76 10.4469 20.5585 5.84945 17.4524 3.60779C14.3463 1.36614 10.2346 3.57252 10.2346 3.57252M10.2346 3.57252L7.75394 7.00973M7.75394 7.00973L10.9291 9.3012M7.75394 7.00973L5.49885 10.1345M5.49885 10.1345L8.67398 12.4259M5.49885 10.1345L3.24375 13.2592M3.24375 13.2592L6.41888 15.5507" stroke="#505EDA"/>
<circle cx="18.3688" cy="2.33775" r="1.45783" transform="rotate(35.8177 18.3688 2.33775)" fill="url(#paint1_linear_180_394)" stroke="#505EDA"/>
</g>
<defs>
<linearGradient id="paint0_linear_180_394" x1="17.4524" y1="3.60779" x2="4.84932" y2="21.071" gradientUnits="userSpaceOnUse">
<stop stop-color="#ACB5FF"/>
<stop offset="1" stop-color="#E9E9FF"/>
</linearGradient>
<linearGradient id="paint1_linear_180_394" x1="18.3688" y1="0.37992" x2="18.3688" y2="4.29557" gradientUnits="userSpaceOnUse">
<stop stop-color="#D6C9F0"/>
<stop offset="0.0001" stop-color="#D1C9F0"/>
<stop offset="1" stop-color="#EFECF9"/>
</linearGradient>
<clipPath id="clip0_180_394">
<rect width="25" height="25" fill="white"/>
</clipPath>
</defs>
</svg>
