<svg width="24" height="18" viewBox="0 0 24 18" fill="none" xmlns="http://www.w3.org/2000/svg">
<path fill-rule="evenodd" clip-rule="evenodd" d="M22.5203 2.81033C21.8962 1.734 21.2201 1.53622 19.8417 1.46109C18.4649 1.37063 15.0013 1.33383 12.0023 1.33383C8.99717 1.33383 5.53206 1.37063 4.15676 1.46109C2.78145 1.53775 2.10376 1.734 1.4736 2.81033C0.831178 3.88666 0.5 5.73727 0.5 8.99692V9.00919C0.5 12.255 0.831178 14.1194 1.4736 15.182C2.10223 16.2568 2.77991 16.453 4.15676 16.5435C5.53206 16.6201 8.99563 16.6661 12.0023 16.6661C15.0013 16.6661 18.4649 16.6201 19.8432 16.5435C21.2216 16.453 21.8978 16.2568 22.5218 15.182C23.1719 14.1179 23.5 12.2535 23.5 9.00919V8.99692C23.4985 5.73727 23.1719 3.88666 22.5203 2.81033V2.81033Z" stroke="#FFC5D6" stroke-miterlimit="10" stroke-linecap="round" stroke-linejoin="round"/>
<path fill-rule="evenodd" clip-rule="evenodd" d="M9.69934 12.8331V5.1669L15.8323 8.99998L9.69934 12.8331Z" stroke="#FFC5D6" stroke-miterlimit="10" stroke-linecap="round" stroke-linejoin="round"/>
</svg>
